<?xml version="1.0" standalone="no"?>
<!DOCTYPE svg PUBLIC "-//W3C//DTD SVG 20010904//EN"
 "http://www.w3.org/TR/2001/REC-SVG-20010904/DTD/svg10.dtd">
<svg version="1.0" xmlns="http://www.w3.org/2000/svg"
 width="700.000000pt" height="700.000000pt" viewBox="0 0 700.000000 700.000000"
 preserveAspectRatio="xMidYMid meet">
<metadata>
Created by potrace 1.14, written by Peter Selinger 2001-2017
</metadata>
<g transform="translate(0.000000,700.000000) scale(0.100000,-0.100000)"
fill="#000000" stroke="none">
<path d="M0 3500 l0 -3500 3500 0 3500 0 0 3500 0 3500 -3500 0 -3500 0 0
-3500z m3304 2783 c3 -65 8 -221 11 -348 3 -126 8 -290 11 -362 l6 -133 -89 0
-90 0 -7 38 c-3 20 -6 60 -6 88 0 67 -26 202 -52 273 -28 76 -100 183 -151
225 -89 72 -221 119 -382 135 -108 11 -676 -3 -753 -18 -156 -31 -236 -118
-262 -286 -7 -42 -14 -305 -17 -647 l-6 -578 517 0 517 0 -6 63 c-21 220 -33
392 -29 399 3 4 57 8 120 8 l114 0 0 -575 0 -575 -90 0 -90 0 0 58 c-1 86 -25
202 -53 258 -77 150 -189 176 -688 156 -166 -6 -303 -13 -305 -15 -2 -1 -4
-378 -6 -837 l-3 -835 250 3 c358 4 945 18 949 23 3 4 11 188 32 735 l6 162
-23 -4 c-13 -2 -88 -5 -166 -8 l-143 -4 0 99 0 99 356 -2 357 -3 88 -205 c48
-113 92 -212 97 -220 6 -10 12 17 17 88 l7 103 92 -3 c52 -2 91 -7 91 -13 -1
-5 -4 -149 -9 -320 l-8 -310 52 -115 c85 -189 372 -852 453 -1045 81 -193 262
-603 270 -611 6 -6 79 172 199 481 105 270 284 706 468 1140 145 341 338 811
390 948 l33 87 343 0 344 0 0 -74 0 -73 -56 -7 c-109 -13 -184 -66 -224 -159
-50 -116 -50 -133 20 -1341 35 -611 66 -1171 68 -1245 l4 -134 169 6 170 6 -3
-102 -3 -102 -515 0 -515 0 -3 78 -3 77 27 0 c54 0 143 32 182 66 54 46 80
113 94 240 11 97 7 193 -46 1078 -32 534 -62 1004 -65 1045 l-6 75 -183 -455
c-100 -250 -346 -857 -545 -1349 l-362 -895 -71 -3 -71 -3 -158 353 c-381 852
-490 1099 -593 1343 l-109 260 -171 3 -172 2 0 -37 c0 -21 -4 -195 -10 -388
-5 -192 -15 -548 -20 -790 -6 -242 -14 -457 -17 -478 l-6 -39 64 6 c35 3 115
8 177 12 l113 6 -3 -104 -3 -103 -440 0 -440 0 -3 75 -3 75 70 11 c89 14 138
40 178 93 62 80 67 128 98 871 14 333 28 647 31 697 l7 93 -1022 0 -1021 0 0
89 0 89 43 7 c175 26 241 64 286 166 43 96 43 122 50 1719 3 844 6 1536 6
1537 -1 1 -66 -2 -145 -7 -80 -5 -166 -10 -192 -10 l-48 0 0 120 0 120 1314 0
1314 0 6 -117z"/>
<path d="M2940 3219 c0 -69 -3 -180 -7 -247 l-6 -122 39 16 c21 8 61 31 87 50
37 27 47 40 41 52 -4 9 -36 94 -72 187 -36 94 -69 174 -73 180 -5 5 -9 -45 -9
-116z"/>
</g>
</svg>
