<svg xmlns="http://www.w3.org/2000/svg">

  <symbol id="location" viewBox="0 0 23 33">
    <path d="M11.5 2.75C15.8945 2.75 19.75 6.34975 19.75 10.4528C19.75 14.7056 16.3221 20.2593 11.5 27.8616C6.67788 20.2593 3.25 14.7056 3.25 10.4528C3.25 6.34975 7.1055 2.75 11.5 2.75ZM11.5 0C5.72775 0 0.5 4.67913 0.5 10.4528C0.5 16.225 5.26987 23.1165 11.5 33C17.7301 23.1165 22.5 16.225 22.5 10.4528C22.5 4.67913 17.2736 0 11.5 0V0ZM11.5 15.125C9.22163 15.125 7.375 13.2784 7.375 11C7.375 8.72163 9.22163 6.875 11.5 6.875C13.7784 6.875 15.625 8.72163 15.625 11C15.625 13.2784 13.7784 15.125 11.5 15.125Z" fill="currentColor"/>
  </symbol>

  <symbol id="phone" viewBox="0 0 24 24">
    <path d="M6.17609 1.322L9.02009 0L13.0611 7.89L10.3371 9.231C9.79909 10.49 12.4961 15.52 13.6341 15.603C13.7241 15.545 16.3051 14.275 16.3051 14.275L20.4151 22.207C20.4151 22.207 17.6511 23.561 17.5611 23.603C9.69909 27.194 -1.54191 5.345 6.17609 1.322ZM8.10509 2.596L7.08209 3.1C1.78809 5.862 11.2591 24.285 16.7301 21.786L17.7011 21.312L15.4301 16.929L14.4041 17.429C11.2411 18.976 6.14209 9.21 9.34909 7.491L10.3561 6.994L8.10509 2.596Z" fill="currentColor"/>
  </symbol>

  <symbol id="behance" viewBox="0 0 24 24">
    <path d="M22 6H15V4H22V6ZM23.726 16C23.284 17.297 21.697 19 18.625 19C15.551 19 13.061 17.271 13.061 13.325C13.061 9.415 15.386 7.405 18.527 7.405C21.609 7.405 23.491 9.187 23.902 11.831C23.98 12.337 24.011 13.019 23.997 13.971H15.97C16.1 17.182 19.453 17.283 20.558 16H23.726ZM16.04 12H21.005C20.9 10.453 19.869 9.781 18.528 9.781C17.062 9.781 16.251 10.549 16.04 12ZM6.466 18.988H0V4.021H6.953C12.429 4.102 12.533 9.465 9.673 10.927C13.134 12.187 13.25 18.988 6.466 18.988V18.988ZM3 10H6.584C9.092 10 9.49 7 6.272 7H3V10V10ZM6.391 13H3V16.016H6.341C9.396 16.016 9.209 13 6.391 13V13Z" fill="currentColor"/>
  </symbol>

  <symbol id="pinterest" viewBox="0 0 24 24">
    <path fill-rule="evenodd" clip-rule="evenodd" d="M12 0C5.373 0 0 5.372 0 12C0 17.084 3.163 21.426 7.627 23.174C7.522 22.225 7.427 20.769 7.669 19.733C7.887 18.796 9.076 13.768 9.076 13.768C9.076 13.768 8.717 13.049 8.717 11.986C8.717 10.318 9.684 9.072 10.888 9.072C11.911 9.072 12.406 9.841 12.406 10.762C12.406 11.791 11.751 13.33 11.412 14.757C11.129 15.951 12.011 16.926 13.189 16.926C15.322 16.926 16.961 14.677 16.961 11.431C16.961 8.558 14.897 6.549 11.949 6.549C8.535 6.549 6.531 9.11 6.531 11.756C6.531 12.787 6.928 13.894 7.424 14.494C7.522 14.613 7.536 14.718 7.507 14.839L7.174 16.199C7.121 16.419 7 16.466 6.772 16.36C5.273 15.662 4.336 13.471 4.336 11.711C4.336 7.926 7.086 4.449 12.265 4.449C16.428 4.449 19.663 7.416 19.663 11.38C19.663 15.516 17.056 18.844 13.436 18.844C12.22 18.844 11.077 18.213 10.686 17.466L9.938 20.319C9.667 21.362 8.936 22.669 8.446 23.465C9.57 23.812 10.763 24 12 24C18.627 24 24 18.627 24 12C24 5.372 18.627 0 12 0V0Z" fill="currentColor"/>
  </symbol>

  <symbol id="instagram" viewBox="0 0 24 24">
    <path d="M12 2.163C15.204 2.163 15.584 2.175 16.85 2.233C20.102 2.381 21.621 3.924 21.769 7.152C21.827 8.417 21.838 8.797 21.838 12.001C21.838 15.206 21.826 15.585 21.769 16.85C21.62 20.075 20.105 21.621 16.85 21.769C15.584 21.827 15.206 21.839 12 21.839C8.796 21.839 8.416 21.827 7.151 21.769C3.891 21.62 2.38 20.07 2.232 16.849C2.174 15.584 2.162 15.205 2.162 12C2.162 8.796 2.175 8.417 2.232 7.151C2.381 3.924 3.896 2.38 7.151 2.232C8.417 2.175 8.796 2.163 12 2.163ZM12 0C8.741 0 8.333 0.014 7.053 0.072C2.695 0.272 0.273 2.69 0.073 7.052C0.014 8.333 0 8.741 0 12C0 15.259 0.014 15.668 0.072 16.948C0.272 21.306 2.69 23.728 7.052 23.928C8.333 23.986 8.741 24 12 24C15.259 24 15.668 23.986 16.948 23.928C21.302 23.728 23.73 21.31 23.927 16.948C23.986 15.668 24 15.259 24 12C24 8.741 23.986 8.333 23.928 7.053C23.732 2.699 21.311 0.273 16.949 0.073C15.668 0.014 15.259 0 12 0V0ZM12 5.838C8.597 5.838 5.838 8.597 5.838 12C5.838 15.403 8.597 18.163 12 18.163C15.403 18.163 18.162 15.404 18.162 12C18.162 8.597 15.403 5.838 12 5.838ZM12 16C9.791 16 8 14.21 8 12C8 9.791 9.791 8 12 8C14.209 8 16 9.791 16 12C16 14.21 14.209 16 12 16ZM18.406 4.155C17.61 4.155 16.965 4.8 16.965 5.595C16.965 6.39 17.61 7.035 18.406 7.035C19.201 7.035 19.845 6.39 19.845 5.595C19.845 4.8 19.201 4.155 18.406 4.155Z" fill="currentColor"/>
  </symbol>

  <symbol id="email" viewBox="0 0 24 24">
    <path d="M12.042 23.6481C4.229 23.6481 0 18.7721 0 12.4771C0 5.75005 4.762 0.352051 13.276 0.352051C19.49 0.352051 24 4.39005 24 9.95305C24 18.6651 13.67 20.965 14.188 15.9951C13.478 17.1031 12.334 18.3491 10.135 18.3491C7.619 18.3491 6.055 16.507 6.055 13.5421C6.055 9.09805 8.976 5.34305 12.434 5.34305C14.093 5.34305 15.234 6.21905 15.711 7.56405L16.175 5.93205H18.513C18.269 6.76405 16.192 14.4591 16.192 14.4591C15.544 17.125 17.542 17.1721 19.314 15.7561C22.643 13.1761 22.815 6.42905 18.316 3.61505C13.495 0.724051 2.521 2.51305 2.521 12.3081C2.521 17.9191 6.471 21.6891 12.35 21.6891C15.786 21.6891 17.892 20.7591 19.645 19.7411L20.822 21.4391C19.111 22.4051 16.361 23.6481 12.042 23.6481ZM9.698 9.34305C8.983 10.6831 8.521 12.4191 8.521 13.7671C8.521 17.3771 12.043 17.4001 13.773 14.0061C14.485 12.6121 14.944 10.8351 14.944 9.47705C14.944 6.56005 11.449 6.04305 9.698 9.34305Z" fill="currentColor"/>
  </symbol>

  <symbol id="arrow" viewBox="0 0 12 13">
    <path d="M11.9692 6.46914L0.792378 12.9841L0.738671 0.0471869L11.9692 6.46914Z" fill="currentColor"/>
  </symbol>

</svg>
